<svg width="32" height="32" viewBox="0 0 32 32" fill="none" xmlns="http://www.w3.org/2000/svg">
<path d="M31.8021 9.29056C31.3918 6.99953 30.2974 4.91036 28.6902 3.22576C28.1431 2.68661 27.254 2.653 26.7069 3.19215C26.1597 3.7313 26.1256 4.60727 26.6728 5.14636C27.9038 6.42677 28.7247 8.04399 29.0664 9.7961C29.4085 11.6493 29.169 13.5025 28.3826 15.2207C28.0749 15.9284 28.3826 16.7369 29.0664 17.0739C29.2716 17.175 29.4426 17.2086 29.6477 17.2086C30.1949 17.2086 30.7077 16.9054 30.9129 16.3999C31.9391 14.1424 32.2468 11.6829 31.8021 9.2906L31.8021 9.29056Z" fill="#6265C3"/>
<path d="M25.9204 7.60585C25.5102 6.96562 24.6209 6.79715 23.9712 7.2016C23.3214 7.60585 23.1163 8.48201 23.5609 9.12224C23.8686 9.59394 24.0737 10.0992 24.1763 10.6723C24.2789 11.3125 24.2789 11.9527 24.0737 12.5929C23.8686 13.3341 24.3132 14.109 25.0653 14.3112C25.202 14.3448 25.3048 14.3786 25.4414 14.3786C26.0568 14.3786 26.6384 13.9744 26.8091 13.3678C27.0827 12.3234 27.1512 11.2789 26.9458 10.2344C26.7753 9.22333 26.3991 8.38099 25.9204 7.60587L25.9204 7.60585Z" fill="#6265C3"/>
<path d="M26.1597 20.5104C25.7494 20.0387 25.339 19.567 24.9627 19.0617L22.5007 15.6924C22.0904 15.1196 21.8168 14.4794 21.6799 13.7717L21.1329 10.773C20.6542 8.1786 19.1837 5.92114 16.9951 4.4387C15.6615 3.52892 14.1228 2.95613 12.5496 2.75403L12.3445 1.67572C12.1394 0.563843 11.0793 -0.143597 9.95086 0.0246895L8.07003 0.361719C6.94157 0.563843 6.22358 1.60831 6.39438 2.72019L6.59951 3.7985C5.19743 4.53975 3.96638 5.58425 3.04328 6.89829C1.50453 9.05466 0.923205 11.6827 1.40195 14.2771L1.94913 17.2758C2.08581 17.9496 2.0517 18.691 1.84656 19.3648L0.752177 23.3746C0.58115 23.9809 0.341902 24.5875 0.136776 25.1603C9.71505e-05 25.5646 -0.0342514 25.969 0.0342072 26.4069C0.341914 28.0579 2.25681 28.9675 4.85587 29.3045C4.78741 28.9675 4.78741 28.6643 4.78741 28.3275C4.78741 27.8222 4.85587 27.3167 4.95844 26.845C3.45376 26.609 2.59887 26.2386 2.49634 25.969C2.53045 25.3627 4.82153 23.5767 9.78004 22.2626V24.8571C8.34381 25.3624 7.28381 26.7103 7.28381 28.3275C7.28381 30.3492 8.95946 32 11.0111 32C13.0629 32 14.7384 30.349 14.7384 28.3275C14.7384 26.7439 13.7124 25.3624 12.2421 24.8571V21.6898C12.4473 21.6562 12.6524 21.6224 12.8575 21.5552C15.1827 21.1509 17.2004 20.9824 18.8076 20.9824C22.0906 20.9824 23.937 21.6226 24.1421 22.0607C24.0737 22.6671 21.7141 24.4866 16.6533 25.8007C16.9953 26.5419 17.1661 27.3507 17.2004 28.193C19.3548 27.6539 21.3039 26.9464 22.877 26.1377C26.4332 24.419 26.912 22.7343 26.7069 21.6224C26.6043 21.2182 26.4333 20.8475 26.1597 20.5105L26.1597 20.5104Z" fill="#6265C3"/>
</svg>
