<svg width="24" height="24" viewBox="0 0 24 24" fill="none" xmlns="http://www.w3.org/2000/svg">
<path d="M4.75373 6.19503C4.91884 6.33336 5.11688 6.40265 5.24882 6.47194C5.74391 6.43742 6.00805 6.26432 6.14022 5.91812C6.27217 5.57192 6.23924 5.22598 5.97511 4.94904C5.57903 4.49904 5.1498 4.08379 4.72058 3.6338C4.39036 3.2876 3.86231 3.2876 3.49917 3.6338C3.16895 3.97999 3.13602 4.5336 3.49917 4.91431C3.92841 5.36431 4.32448 5.81429 4.75371 6.19506L4.75373 6.19503Z" fill="white"/>
<path d="M18.7839 6.47188C18.8829 6.40259 19.1141 6.36806 19.2461 6.19496C19.6753 5.77972 20.1044 5.32971 20.5006 4.87972C20.8308 4.53352 20.8308 3.97992 20.5006 3.63376C20.1704 3.28756 19.6424 3.25303 19.3122 3.59923C18.8829 4.01448 18.4539 4.46449 18.0576 4.91448C17.7935 5.19139 17.7606 5.53734 17.8925 5.88356C18.0245 6.29881 18.3218 6.4719 18.7839 6.4719V6.47188Z" fill="white"/>
<path d="M11.9835 3.56465C12.4457 3.56465 12.8418 3.18393 12.8418 2.6994V1.7996V0.8998C12.8418 0.380748 12.4786 0 11.9835 0C11.4884 0 11.1252 0.380724 11.1252 0.8998V2.73413C11.1582 3.1839 11.5213 3.56465 11.9835 3.56465Z" fill="white"/>
<path d="M3.43318 12.5633C3.43318 12.0787 3.07003 11.6635 2.60787 11.6635H0.825311C0.363149 11.6635 0 12.0787 0 12.5633C0 13.0478 0.363149 13.4285 0.825311 13.4285H1.68358H2.57497C3.07006 13.4285 3.43324 13.0478 3.43324 12.5633H3.43318Z" fill="white"/>
<path d="M23.1748 11.6635H21.3922C20.93 11.6635 20.5669 12.0787 20.5669 12.5633C20.5669 13.0478 20.93 13.4285 21.3922 13.4631H22.2505H23.1419C23.604 13.4631 24.0001 13.0478 24.0001 12.5633C24.0001 12.0787 23.637 11.6635 23.1748 11.6635H23.1748Z" fill="white"/>
<path d="M4.29154 21.285V20.039C4.29154 19.9697 4.35763 19.9007 4.42349 19.8659C5.18272 19.3814 5.81001 18.793 6.27213 17.9971C6.66821 17.3394 6.86623 16.6128 6.83331 15.8166C6.83331 14.7437 6.86624 13.6361 7.03135 12.5632C7.22939 11.3865 7.59253 10.2788 8.35173 9.34456C8.94584 8.65242 9.67211 8.23691 10.4974 8.02931C10.6294 7.99479 10.6625 7.9255 10.6625 7.78692C10.6625 7.05999 11.2566 6.47168 11.9829 6.47168C12.6763 6.47168 13.2374 7.06002 13.2374 7.78692C13.2374 7.89074 13.2045 7.96002 13.3365 7.99455C15.0861 8.40979 16.0765 9.65577 16.6048 11.3517C16.935 12.4246 17.034 13.5322 17.0669 14.6744C17.0998 15.2282 17.0669 15.7821 17.0998 16.3011C17.1989 17.3395 17.661 18.2047 18.3544 18.8968C18.6846 19.243 19.1136 19.5197 19.4767 19.8314C19.5758 19.9007 19.6087 19.9352 19.6087 20.0738V21.2504C14.5583 21.285 9.44145 21.285 4.2915 21.285L4.29154 21.285Z" fill="white"/>
<path d="M14.5583 22.6694C14.6244 23.3271 14.0301 23.9847 13.4028 23.9847C12.4784 24.0192 11.5542 23.9847 10.6298 23.9847C10.0025 23.9847 9.4084 23.2925 9.47425 22.6694H14.5583H14.5583Z" fill="white"/>
</svg>
