<svg width="146" height="146" viewBox="0 0 146 146" fill="none" xmlns="http://www.w3.org/2000/svg">
<path d="M25.5467 0.0012519C11.4772 0.0012519 0 11.4765 0 25.5437C0.00855562 31.9718 2.45554 38.0466 6.66633 42.6805H6.66755C13.9681 26.7388 26.7642 13.9574 42.7168 6.67492C38.0733 2.45648 31.9827 0.00625677 25.5476 0.0025026L25.5467 0.0012519ZM120.452 0.0012519C114.031 0.0098064 107.961 2.46981 103.326 6.68117H103.327C119.263 13.9805 132.042 26.7682 139.326 42.7087C143.547 38.066 145.996 31.9765 146 25.5424C146 11.4752 134.523 0 120.453 0L120.452 0.0012519ZM72.9949 7.30061H72.9961C61.4616 7.30061 50.1312 10.3362 40.1416 16.1032C30.1532 21.869 21.8576 30.1629 16.0912 40.1496C10.3232 50.1376 7.2871 61.4661 7.2871 72.9986C7.2871 84.5311 10.3232 95.8609 16.0912 105.848C21.8579 115.836 30.1532 124.129 40.1416 129.895C50.1312 135.661 61.4616 138.697 72.9961 138.697C84.5305 138.697 95.8622 135.661 105.851 129.895C115.84 124.128 124.135 115.836 129.902 105.848C135.669 95.8609 138.705 84.5311 138.705 72.9986C138.705 61.4661 135.669 50.1376 129.902 40.1496C124.134 30.1629 115.84 21.8687 105.851 16.1032C95.8622 10.3362 84.5305 7.30061 72.9961 7.30061H72.9949ZM76.6311 25.7208C99.9703 27.4854 118.51 46.0205 120.274 69.3567H113.152C113.036 69.3518 112.92 69.3518 112.804 69.3567C110.821 69.496 109.313 71.1935 109.407 73.1782C109.503 75.1628 111.166 76.7074 113.152 76.6573H120.268C118.491 99.9779 99.9627 118.494 76.6344 120.256V113.133C76.6454 112.152 76.2616 111.206 75.5674 110.512C74.8743 109.817 73.9295 109.431 72.948 109.44C71.9788 109.45 71.0535 109.845 70.3752 110.538C69.6968 111.229 69.3228 112.164 69.3338 113.133V120.248C46.0177 118.473 27.5116 99.9682 25.7343 76.6561H32.8503C33.8318 76.6769 34.7815 76.3017 35.4831 75.6149C36.1859 74.9281 36.5807 73.9883 36.5807 73.0058C36.5807 72.0233 36.1859 71.0835 35.4831 70.3967C34.7815 69.7087 33.8318 69.3348 32.8503 69.3555H25.7268C27.4905 46.0299 46.0077 27.5059 69.3325 25.729V32.8437C69.3765 34.8284 70.9973 36.4133 72.9822 36.4133C74.9671 36.4133 76.589 34.8283 76.6331 32.8437L76.6311 25.7208ZM72.9448 43.7558L72.946 43.757C71.9767 43.7668 71.0515 44.1603 70.3731 44.8532C69.6948 45.5461 69.3207 46.4798 69.3318 47.4489V62.7405C65.1186 64.2657 62.0593 68.2776 62.0593 72.9913C62.0593 78.9952 66.9913 83.9557 72.9961 83.9557C74.6731 83.9557 76.2475 83.5316 77.6737 82.8436L85.0171 90.1783V90.1795C85.7028 90.8675 86.6354 91.2537 87.6071 91.2549C88.5788 91.2562 89.5101 90.87 90.1971 90.1832C90.8852 89.4964 91.2702 88.5639 91.269 87.5924C91.269 86.6209 90.8815 85.6897 90.1934 85.0041L82.8352 77.6753C83.5221 76.2455 83.9401 74.6703 83.9401 72.9923C83.9401 68.2668 80.8625 64.2436 76.6324 62.7272V47.449C76.6434 46.4677 76.2596 45.523 75.5653 44.8289C74.8723 44.1335 73.9275 43.7473 72.946 43.7571L72.9448 43.7558ZM72.9949 69.3542C75.0544 69.3542 76.6311 70.9307 76.6311 72.9898C76.6311 75.049 75.0544 76.6536 72.9949 76.6536C70.9354 76.6536 69.3305 75.049 69.3305 72.9898C69.3305 70.9306 70.9354 69.3542 72.9949 69.3542ZM126.119 122.942L126.12 122.943C121.038 128.346 115.163 132.942 108.695 136.574L110.991 140.537C113.993 145.736 120.748 147.553 125.949 144.55C131.149 141.549 132.966 134.801 129.963 129.602L126.119 122.942ZM19.8551 122.983L16.0271 129.599C13.024 134.798 14.8415 141.546 20.041 144.547C25.2417 147.549 31.9972 145.732 34.9992 140.534L37.2738 136.613L37.275 136.616C30.8105 132.983 24.9374 128.386 19.8565 122.985L19.8551 122.983Z" fill="url(#paint0_linear_7_257)"/>
<defs>
<linearGradient id="paint0_linear_7_257" x1="123" y1="103.5" x2="-40" y2="-88" gradientUnits="userSpaceOnUse">
<stop stop-color="#6265C3"/>
<stop offset="1" stop-color="white"/>
</linearGradient>
</defs>
</svg>
