<svg width="112" height="79" viewBox="0 0 112 79" fill="none" xmlns="http://www.w3.org/2000/svg">
<path d="M100.443 31.373C96.8542 46.6187 83.1691 58.014 66.8428 58.014C63.0027 58.014 59.318 57.3578 55.8651 56.1964V51.2981C59.2685 52.6462 62.9645 53.4109 66.8428 53.4109C82.8282 53.4109 95.8924 40.8055 96.7035 25.0189L71.0914 24.9877C69.2391 10.8824 57.1694 0 42.5617 0C31.6525 0 22.1625 6.06993 17.2829 15.0157L0 27.9718L14.6 37.1866C17.6849 54.3134 30.0054 78.6957 59.5911 78.6957C101.582 78.6957 109.809 42.5708 111.993 31.4047L100.443 31.373ZM30.2956 24.8411C28.2601 24.8411 26.61 23.191 26.61 21.1538C26.61 19.1165 28.261 17.4664 30.2956 17.4664C32.3337 17.4664 33.983 19.1165 33.983 21.1538C33.9821 23.191 32.3321 24.8411 30.2956 24.8411Z" fill="url(#paint0_linear_9_33)"/>
<defs>
<linearGradient id="paint0_linear_9_33" x1="55.5" y1="4.53748e-08" x2="53.5" y2="138" gradientUnits="userSpaceOnUse">
<stop stop-color="#6265C3"/>
<stop offset="1" stop-color="#6265C3" stop-opacity="0"/>
</linearGradient>
</defs>
</svg>
