<svg width="33" height="33" viewBox="0 0 33 33" fill="none" xmlns="http://www.w3.org/2000/svg">
<path d="M17.0932 26.4145C16.8896 26.6628 16.5554 26.571 16.3367 26.4019C16.0845 26.1497 15.8738 25.8593 15.7127 25.5414C15.5498 25.2953 15.2195 25.5488 15.2912 25.8009C15.4479 26.0831 15.5601 26.388 15.6239 26.7047C15.614 26.9994 15.5404 27.2895 15.4085 27.5552C15.3743 27.6476 15.4062 27.7502 15.4865 27.8069C15.5667 27.8632 15.6754 27.8596 15.7533 27.7978C16.012 27.6 16.324 27.7568 16.5305 27.9515L16.5306 27.9517C16.6391 28.057 16.7401 28.1697 16.8333 28.2888C16.9453 28.4199 17.0675 28.5418 17.1994 28.6531C17.3904 28.8166 17.6321 28.5246 17.4925 28.3453C17.4398 28.2398 17.3512 28.1521 17.2846 28.0583L17.2843 28.0585C17.1995 27.8944 17.1734 27.7056 17.2109 27.5236C17.2922 27.2192 17.4129 26.9339 17.5278 26.6273L17.5275 26.6274C17.5437 26.5191 17.4883 26.4132 17.3897 26.365C17.2914 26.3167 17.1719 26.3369 17.0932 26.4145L17.0932 26.4145Z" fill="#474646"/>
<path d="M5.75021 20.0624C5.71695 19.9959 5.65998 19.9415 5.62058 19.8828L5.62071 19.8831C5.56876 19.7806 5.55212 19.6635 5.57333 19.55C5.62415 19.3633 5.70863 19.1844 5.76914 18.9977C5.78881 18.9262 5.75601 18.8516 5.69034 18.818C5.62481 18.7839 5.54347 18.8001 5.49475 18.8565C5.37299 19.0101 5.16329 18.949 5.02748 18.8458C4.87241 18.6895 4.74277 18.5106 4.6428 18.3149C4.54077 18.1607 4.32971 18.3249 4.38038 18.4754C4.47799 18.6505 4.54774 18.8399 4.58664 19.0369C4.57881 19.218 4.53453 19.3963 4.45622 19.5612C4.439 19.6169 4.45891 19.6768 4.50593 19.7105C4.55323 19.7441 4.61705 19.7442 4.66521 19.711C4.82833 19.5902 5.01986 19.685 5.14988 19.8057C5.2203 19.8737 5.28418 19.9481 5.34043 20.028C5.41064 20.1075 5.48654 20.1823 5.56675 20.252C5.68505 20.3492 5.83057 20.1739 5.75021 20.0624L5.75021 20.0624Z" fill="#474646"/>
<path d="M22.3765 14.8266C22.274 14.7762 22.1911 14.6943 22.1404 14.5929L22.0685 14.3895C22.0059 14.2644 21.8099 14.2598 21.8306 14.4107L21.8309 14.4105C21.8457 14.5149 21.8675 14.6182 21.8959 14.7199C21.928 14.8112 21.9529 14.9047 21.9714 14.9998C22.006 15.1682 21.9847 15.3742 21.8103 15.4226C21.6358 15.4706 21.7021 15.6331 21.8266 15.6734L21.8264 15.6732C21.9955 15.7147 22.1553 15.7875 22.2962 15.8878C22.4292 16.0381 22.5414 16.2055 22.6297 16.3856C22.7001 16.5263 22.9499 16.4501 22.8818 16.2841C22.7763 16.0911 22.7009 15.8835 22.6582 15.6679C22.6413 15.5053 22.6983 15.3108 22.8765 15.3096C23.0547 15.3084 23.0563 15.0732 22.8982 15.0155C22.7403 14.9575 22.5443 14.9038 22.3765 14.8266L22.3765 14.8266Z" fill="#474646"/>
<path d="M22.9387 18.4734C21.6237 19.6784 19.5358 19.1488 18.2007 18.3165C16.601 17.3234 15.5562 15.73 14.7114 14.0809C13.8669 12.4316 13.1246 10.8481 13.3844 9.01305C13.6631 7.43675 14.4414 5.98284 15.606 4.86296C15.7848 4.68054 15.8489 4.41668 15.7726 4.17673C15.6963 3.93678 15.492 3.75979 15.2416 3.71631C15.1676 3.58084 15.0403 3.48226 14.8896 3.44414C14.7387 3.40575 14.5778 3.43103 14.4445 3.51371C12.3583 4.98466 10.6608 6.93409 9.49966 9.19186C8.41942 11.154 7.41272 13.3332 7.42132 15.606C7.43766 20.2982 11.9625 23.3762 16.439 23.0092C19.2348 22.7788 21.8345 21.3909 23.8928 19.5262L23.8927 19.5259C24.1898 19.2615 24.2172 18.8111 23.9538 18.5206C23.6906 18.2299 23.2362 18.209 22.9391 18.4734L22.9387 18.4734Z" fill="#474646"/>
<path d="M22.6114 8.12238C22.1319 7.82944 21.6789 7.50898 21.2295 7.17642L21.3537 6.93843C21.6899 6.73623 21.9179 6.38771 21.6827 5.98728C21.6213 5.86938 21.5008 5.79331 21.366 5.78709C21.2314 5.78115 21.1025 5.84629 21.0275 5.9584L20.8933 6.20617C20.8087 6.21576 20.7254 6.22807 20.6436 6.24312L20.6433 6.24326C20.4816 6.27196 20.3233 6.31842 20.1712 6.38153C19.8618 6.14053 19.5545 5.89336 19.2591 5.64063C19.1754 5.54749 19.0307 5.54011 18.9355 5.62417C18.8403 5.70824 18.8309 5.85164 18.9146 5.94478C18.938 5.99168 18.9834 6.02284 19.0207 6.06759C18.9813 6.13774 18.9675 6.21894 18.9815 6.2975C18.9888 6.37186 19.0082 6.4501 19.0234 6.53043C18.9695 6.53284 18.9183 6.55643 18.8809 6.59594C18.8438 6.63557 18.8243 6.68795 18.8262 6.74156C18.8308 6.91988 18.8297 7.0966 18.8385 7.27286C18.6713 7.41512 18.486 7.56162 18.3209 7.68813L18.1982 7.69086L18.198 7.691C17.9656 7.68994 17.7371 7.75548 17.5403 7.88015C17.3433 8.00456 17.1863 8.18259 17.0882 8.39251C17.0323 8.56221 17.0705 8.74729 17.1887 8.87973C17.3069 9.01217 17.4876 9.07211 17.6641 9.0377C18.0521 8.964 18.418 8.79977 18.731 8.55807C18.8161 8.54957 18.9013 8.55092 18.9844 8.54859C19.0192 8.96608 19.0165 9.38764 19.0196 9.80126C19.019 9.84927 19.0415 9.89426 19.0802 9.92232C19.0938 9.94959 19.0617 9.99493 19.0577 10.0361C19.0531 10.1669 19.1261 10.2872 19.2443 10.344C19.3624 10.4008 19.5043 10.383 19.6065 10.2992C19.7696 10.1174 19.899 9.90854 19.9889 9.68295C20.0421 9.63965 20.0808 9.58112 20.0989 9.51548L20.1255 9.38017L20.1437 9.33697C20.2582 9.08919 20.3907 8.83719 20.4991 8.59724C21.09 8.64393 21.6766 8.73097 22.254 8.85808C22.6829 8.96123 23.0355 8.38444 22.6114 8.12244L22.6114 8.12238Z" fill="#474646"/>
<path d="M28.907 14.9908C28.8017 14.8737 28.667 14.7859 28.5165 14.7365L28.299 14.6888C28.1434 14.6791 27.9875 14.7096 27.8468 14.7783C27.4039 15.0151 27.2202 15.5507 27.4286 15.9987L27.5637 16.1996L27.5641 16.1998C27.6699 16.3163 27.8044 16.4038 27.9547 16.454L28.1841 16.4957C28.3397 16.5055 28.4959 16.4762 28.6379 16.4103C28.7509 16.3596 28.8485 16.2804 28.9207 16.1809C29.0861 16.0058 29.167 15.7691 29.1428 15.5323C29.1464 15.4106 29.1171 15.2903 29.058 15.1838C29.0109 15.1195 28.9778 15.0532 28.907 14.9908L28.907 14.9908Z" fill="#474646"/>
<path d="M9.21388 23.959L8.98251 23.9135C8.82715 23.9056 8.67167 23.9363 8.53032 24.0029C8.31805 24.121 8.15352 24.3089 8.06542 24.5333C7.99731 24.7643 8.01337 25.0106 8.11055 25.2292L8.24986 25.4281L8.24959 25.4282C8.35367 25.5449 8.48806 25.6314 8.63819 25.6787L8.86956 25.7242C9.0325 25.7347 9.19587 25.7004 9.34142 25.6249C9.45421 25.574 9.55157 25.4949 9.6242 25.3956C9.78533 25.2203 9.86519 24.9871 9.8445 24.753C9.84766 24.6311 9.81834 24.5108 9.75964 24.4045C9.72255 24.3304 9.66742 24.27 9.62244 24.1995C9.51061 24.0846 9.3697 24.0017 9.21388 23.959Z" fill="#474646"/>
<path d="M19.0549 13.9956C19.4208 13.7779 19.5591 13.3199 19.3717 12.9452C19.1845 12.5709 18.735 12.4064 18.3414 12.5688C17.9754 12.7862 17.8373 13.2445 18.0245 13.6189C18.2119 13.9935 18.6613 14.1577 19.0549 13.9956Z" fill="#474646"/>
<path d="M25.2043 12.4737C24.919 12.6597 24.8166 13.0261 24.9665 13.3257C25.1163 13.6254 25.4709 13.7633 25.7907 13.6463C26.0763 13.4606 26.1786 13.0942 26.0287 12.7945C25.8789 12.4949 25.5244 12.3569 25.2043 12.4737Z" fill="#474646"/>
<path d="M24.333 23.8551C24.2478 23.8012 24.15 23.7697 24.0485 23.7629L24.0166 23.7788L24.0169 23.7787C24.0005 23.7743 23.984 23.7713 23.9675 23.7693C23.8462 23.7618 23.7248 23.7871 23.6163 23.8424C23.506 23.8658 23.4032 23.9172 23.3183 23.9914L23.1804 24.153C23.0995 24.2712 23.0512 24.4081 23.041 24.5499C23.0363 24.6429 23.0395 24.7361 23.0514 24.8283C23.0542 24.8381 23.0588 24.8474 23.065 24.8556C23.0942 25.0012 23.1615 25.1359 23.2605 25.2466L23.4258 25.3885C23.5153 25.4491 23.6182 25.4879 23.7263 25.5024C23.7962 25.5257 23.8717 25.5285 23.944 25.5108C24.0578 25.5132 24.171 25.4852 24.2712 25.43L24.4563 25.3033L24.6019 25.1378C24.6666 25.0482 24.7069 24.9438 24.7187 24.835C24.7503 24.7299 24.753 24.6188 24.7269 24.5133C24.7217 24.446 24.7014 24.3812 24.6667 24.3236C24.651 24.2762 24.6286 24.2315 24.6002 24.1905C24.5908 24.1676 24.5797 24.1455 24.567 24.1243C24.5566 24.0985 24.5441 24.0737 24.5298 24.0498C24.4807 23.9704 24.4133 23.9036 24.333 23.8551L24.333 23.8551Z" fill="#474646"/>
<path d="M5.25479 12.8929C4.98293 13.0588 4.88176 13.4012 5.02178 13.6812C5.16194 13.9615 5.49653 14.0859 5.79238 13.968C6.06396 13.8022 6.16541 13.4597 6.02525 13.1794C5.88523 12.8994 5.55036 12.7751 5.25479 12.8929Z" fill="#474646"/>
<path d="M13.5767 23.991C13.305 24.1565 13.2035 24.499 13.3437 24.7793C13.4837 25.0593 13.8187 25.1839 14.1141 25.0658C14.3861 24.9001 14.4872 24.5575 14.3471 24.2775C14.207 23.9972 13.8724 23.8728 13.5767 23.991Z" fill="#474646"/>
</svg>
