<svg width="18" height="18" viewBox="0 0 18 18" fill="none" xmlns="http://www.w3.org/2000/svg">
<path d="M17.6484 7.36875H9.18042V10.8492H14.0179C13.8093 11.9742 13.1765 12.9258 12.2226 13.5633C11.4164 14.1023 10.3875 14.4211 9.17808 14.4211C6.83667 14.4211 4.8562 12.8391 4.14839 10.7133C3.97026 10.1742 3.86714 9.59766 3.86714 9.00469C3.86714 8.41172 3.97026 7.83516 4.14839 7.29609C4.85854 5.17266 6.83901 3.59063 9.18042 3.59063C10.5 3.59063 11.6835 4.04531 12.6164 4.93594L15.1945 2.35547C13.6359 0.902344 11.6039 0.0117188 9.18042 0.0117188C5.66714 0.0117188 2.6273 2.02734 1.14839 4.96641C0.539014 6.18047 0.192139 7.55391 0.192139 9.00703C0.192139 10.4602 0.539014 11.8312 1.14839 13.0453C2.6273 15.9844 5.66714 18 9.18042 18C11.6085 18 13.6429 17.1938 15.1289 15.8203C16.8281 14.2547 17.8101 11.9484 17.8101 9.20859C17.8101 8.57109 17.7539 7.95937 17.6484 7.36875Z" fill="white"/>
</svg>
