<svg width="16" height="16" viewBox="0 0 16 16" fill="none" xmlns="http://www.w3.org/2000/svg">
<path d="M15.5047 9.17781C15.4402 9.20337 15.3737 9.21658 15.3068 9.21725C15.1601 9.21658 15.0176 9.14742 14.9003 9.02032C14.7829 8.89321 14.697 8.71501 14.6551 8.51169C14.6073 8.29957 13.4269 3.10872 7.98845 3.10872H7.9886C7.46118 3.10651 6.93433 3.16092 6.41236 3.2715L5.26947 1.58393C6.16353 1.27708 7.07996 1.12641 7.99882 1.13501C14.481 1.13501 15.9139 7.66795 15.972 7.94935C16.0237 8.20201 16.0033 8.47383 15.9154 8.70471C15.8276 8.93534 15.6798 9.10584 15.5046 9.17809L15.5047 9.17781ZM9.96408 8.39318L11.247 10.2486C11.3278 9.83247 11.3691 9.4027 11.3697 8.97052C11.3688 7.67792 11.0135 6.43883 10.3815 5.52472C9.74946 4.61079 8.89271 4.09689 7.99901 4.09554C7.70018 4.09598 7.40288 4.15589 7.11532 4.27308L8.39819 6.12847C8.78383 6.24257 9.13796 6.51792 9.41636 6.9206C9.69477 7.32327 9.88514 7.83544 9.96406 8.39315L9.96408 8.39318ZM12.656 14.3143C12.8284 14.5639 12.8958 14.9273 12.8326 15.2681C12.7696 15.6089 12.5854 15.875 12.35 15.9664C12.1144 16.0576 11.8629 15.9602 11.6905 15.7106L9.84482 13.0461H9.84467C9.29712 13.5686 8.65498 13.8451 7.999 13.8407C7.18417 13.844 6.39613 13.4191 5.78172 12.645C5.1673 11.8708 4.76842 10.8 4.65906 9.63204C4.54985 8.46411 4.7378 7.2786 5.18773 6.29615L3.90501 4.4359C2.72874 5.29148 1.81351 6.74705 1.33603 8.52163C1.26536 8.8591 1.07543 9.11662 0.838003 9.19681C0.600573 9.277 0.351398 9.16795 0.184596 8.91067C0.0178208 8.65316 -0.0414295 8.28686 0.0293933 7.94914C0.560798 5.86355 1.57608 4.10922 2.90192 2.98539L1.97741 1.6483V1.64808C1.81931 1.39497 1.76296 1.04187 1.82815 0.714121C1.89319 0.386346 2.07078 0.130582 2.29756 0.0374237C2.5245 -0.0555319 2.76849 0.0272904 2.94289 0.25682L12.656 14.3143ZM8.84509 11.6004L6.18748 7.73696C6.06015 8.12046 5.99374 8.54031 5.99298 8.96567C5.99298 9.73513 6.20424 10.473 6.58057 11.0171C6.95677 11.5612 7.46699 11.867 7.99902 11.867C8.29175 11.8678 8.58099 11.7736 8.84508 11.5905L8.84509 11.6004Z" fill="#F1F1F1"/>
</svg>
