<svg width="21" height="21" viewBox="0 0 21 21" fill="none" xmlns="http://www.w3.org/2000/svg">
<path d="M7.61 20C7.12203 19.9971 6.64822 19.8357 6.26 19.54L4.19 18C3.71231 17.6276 3.39536 17.0863 3.30423 16.4875C3.21311 15.8887 3.35472 15.2777 3.7 14.78C3.88269 14.5102 3.99879 14.201 4.03878 13.8777C4.07876 13.5543 4.04148 13.2261 3.93 12.92L3.87 12.76C3.79238 12.4829 3.65051 12.228 3.45591 12.0161C3.26131 11.8041 3.01946 11.641 2.75 11.54H2.59C2.00588 11.3436 1.52281 10.9247 1.24571 10.3742C0.968613 9.82374 0.919846 9.1862 1.11 8.6L1.93 6C2.00549 5.69876 2.14446 5.41713 2.33762 5.17396C2.53078 4.93078 2.77366 4.73169 3.05 4.59C3.30736 4.4574 3.58893 4.3784 3.8777 4.35777C4.16647 4.33715 4.45642 4.37533 4.73 4.47C5.02789 4.57025 5.34575 4.59624 5.65596 4.5457C5.96617 4.49516 6.25935 4.36962 6.51 4.18L6.64 4.08C6.8669 3.89895 7.05027 3.6693 7.17662 3.40796C7.30296 3.14663 7.36904 2.86027 7.37 2.57V2.33C7.36732 1.71813 7.60645 1.12997 8.03535 0.693583C8.46425 0.257192 9.04818 0.00790627 9.66 0H12.21C12.5077 0.000802192 12.8023 0.0604042 13.0768 0.175383C13.3514 0.290362 13.6006 0.458452 13.81 0.67C14.2503 1.11779 14.4949 1.72202 14.49 2.35V2.63C14.4849 2.90575 14.5447 3.17884 14.6646 3.42723C14.7844 3.67562 14.961 3.89237 15.18 4.06L15.29 4.14C15.5144 4.3083 15.7762 4.41984 16.0531 4.46511C16.33 4.51039 16.6136 4.48805 16.88 4.4L17.22 4.29C17.5081 4.19451 17.8124 4.15802 18.1149 4.1827C18.4174 4.20737 18.7118 4.29272 18.9805 4.43364C19.2493 4.57456 19.487 4.76817 19.6793 5.00292C19.8716 5.23767 20.0147 5.50876 20.1 5.8L20.89 8.32C21.0728 8.90239 21.0228 9.53296 20.7506 10.0793C20.4784 10.6256 20.005 11.0452 19.43 11.25L19.23 11.32C18.9358 11.4163 18.6698 11.5834 18.4554 11.8066C18.2409 12.0298 18.0845 12.3022 18 12.6C17.9204 12.8768 17.9015 13.1675 17.9447 13.4523C17.9878 13.7371 18.092 14.0092 18.25 14.25L18.51 14.63C18.8548 15.1304 18.9951 15.7438 18.9021 16.3444C18.8092 16.945 18.49 17.4872 18.01 17.86L16 19.41C15.7572 19.5957 15.4789 19.7297 15.1823 19.8039C14.8857 19.878 14.5771 19.8906 14.2755 19.8409C13.9738 19.7913 13.6855 19.6804 13.4283 19.5152C13.1711 19.3499 12.9505 19.1337 12.78 18.88L12.66 18.71C12.4962 18.4639 12.2727 18.2632 12.0104 18.1268C11.7481 17.9904 11.4556 17.9227 11.16 17.93C10.878 17.9373 10.6016 18.0108 10.3532 18.1445C10.1048 18.2783 9.89135 18.4686 9.73 18.7L9.5 19.03C9.32945 19.2855 9.10837 19.5034 8.85039 19.6702C8.59241 19.8371 8.30301 19.9493 8 20C7.87031 20.0127 7.73969 20.0127 7.61 20ZM3.4 9.62C3.96469 9.82136 4.47423 10.1525 4.8876 10.5867C5.30098 11.0209 5.60664 11.5461 5.78 12.12V12.24C5.99594 12.8366 6.06684 13.4761 5.98686 14.1055C5.90687 14.735 5.6783 15.3363 5.32 15.86C5.25676 15.9299 5.22174 16.0208 5.22174 16.115C5.22174 16.2092 5.25676 16.3001 5.32 16.37L7.47 18C7.49805 18.022 7.53049 18.0378 7.56515 18.0463C7.5998 18.0547 7.63586 18.0557 7.6709 18.049C7.70595 18.0424 7.73917 18.0284 7.76834 18.0078C7.79751 17.9873 7.82194 17.9608 7.84 17.93L8.07 17.6C8.41689 17.0988 8.88015 16.6891 9.42006 16.4062C9.95997 16.1232 10.5604 15.9754 11.17 15.9754C11.7796 15.9754 12.38 16.1232 12.9199 16.4062C13.4599 16.6891 13.9231 17.0988 14.27 17.6L14.39 17.78C14.433 17.841 14.4972 17.8838 14.57 17.9C14.6034 17.9049 14.6375 17.903 14.6701 17.8944C14.7028 17.8859 14.7334 17.8707 14.76 17.85L16.82 16.29C16.8921 16.2328 16.9396 16.1501 16.9526 16.0589C16.9656 15.9678 16.9432 15.8751 16.89 15.8L16.63 15.42C16.2912 14.926 16.0677 14.3622 15.976 13.7703C15.8843 13.1783 15.9266 12.5734 16.1 12C16.2757 11.3974 16.5936 10.8458 17.027 10.3916C17.4603 9.93738 17.9963 9.59389 18.59 9.39L18.79 9.32C18.8734 9.28661 18.9401 9.2216 18.9757 9.13917C19.0113 9.05674 19.0129 8.96357 18.98 8.88L18.2 6.39C18.1813 6.34643 18.1539 6.30713 18.1195 6.27446C18.0851 6.2418 18.0445 6.21647 18 6.2C17.9706 6.18507 17.938 6.17728 17.905 6.17728C17.872 6.17728 17.8394 6.18507 17.81 6.2L17.47 6.31C16.8949 6.49982 16.2822 6.54712 15.6847 6.44783C15.0873 6.34855 14.5228 6.10564 14.04 5.74L14 5.65C13.5367 5.29912 13.161 4.84561 12.9025 4.32509C12.644 3.80456 12.5096 3.23119 12.51 2.65V2.34C12.5118 2.24362 12.4759 2.15033 12.41 2.08C12.3525 2.02801 12.2775 1.99946 12.2 2H9.66C9.61927 2.00254 9.57943 2.01311 9.54278 2.03109C9.50614 2.04906 9.4734 2.0741 9.44646 2.10476C9.41951 2.13542 9.39889 2.1711 9.38577 2.20976C9.37265 2.24841 9.36729 2.28927 9.37 2.33V2.58C9.37007 3.17704 9.23305 3.76612 8.96952 4.30185C8.70599 4.83758 8.32298 5.30565 7.85 5.67L7.72 5.77C7.20973 6.15851 6.61173 6.41553 5.9787 6.51842C5.34567 6.62131 4.69705 6.5669 4.09 6.36C4.04458 6.34476 3.99543 6.34476 3.95 6.36C3.89357 6.39429 3.85106 6.44741 3.83 6.51L3 9.12C2.97107 9.20889 2.97785 9.30555 3.01891 9.38953C3.05997 9.47352 3.13208 9.53824 3.22 9.57L3.4 9.62Z" fill="white"/>
</svg>
