<svg width="32" height="32" viewBox="0 0 32 32" fill="none" xmlns="http://www.w3.org/2000/svg">
<path d="M24.2919 14.1202L21.2454 17.9939C21.3503 18.758 21.1341 19.5316 20.65 20.1248C20.1659 20.7181 19.4586 21.0759 18.7021 21.1105C17.9455 21.1451 17.2097 20.8531 16.6753 20.3065C16.1408 19.7597 15.8577 19.009 15.8949 18.2386C15.9321 17.468 16.2866 16.7492 16.8711 16.2588C17.4554 15.7683 18.2159 15.5514 18.9655 15.6615L22.7686 12.5584C23.0485 12.3287 23.4223 12.255 23.766 12.3625C24.1099 12.4698 24.3789 12.7438 24.4844 13.0941C24.5898 13.4443 24.5177 13.8249 24.2919 14.11L24.2919 14.1202ZM13.2926 23.698C13.2926 23.3259 13.1475 22.9692 12.8894 22.7064C12.6313 22.4436 12.2812 22.2958 11.916 22.2958H6.1264C5.63442 22.2958 5.18014 22.5629 4.93414 22.9967C4.68839 23.4306 4.68839 23.9651 4.93414 24.399C5.18013 24.8328 5.63446 25.0999 6.1264 25.0999H11.9127C12.2777 25.0999 12.6279 24.9524 12.8861 24.6893C13.1442 24.4264 13.2893 24.0697 13.2893 23.6979L13.2926 23.698ZM30.6951 8.64083C30.9855 8.35712 31.1755 7.9834 31.2353 7.57799C31.3036 7.03662 31.1218 6.49333 30.7426 6.10732C30.3636 5.72107 29.8303 5.53587 29.2987 5.6055C28.9007 5.66613 28.5338 5.85961 28.2553 6.15564L26.8286 7.60879L26.8289 7.60855C24.9463 6.10878 22.7027 5.15197 20.3328 4.83823V3.51773H21.576C22.0143 3.52531 22.4398 3.3683 22.7713 3.0763C23.1028 2.78454 23.317 2.37813 23.3726 1.93556C23.4205 1.44321 23.2626 0.952989 22.938 0.584988C22.6135 0.216732 22.1517 0.00453996 21.666 0.000277932H15.6366C15.1986 -0.0075374 14.7728 0.149709 14.4415 0.44171C14.11 0.733473 13.8959 1.13988 13.8401 1.58245C13.7922 2.07718 13.9517 2.56951 14.2793 2.93824C14.6069 3.30673 15.0719 3.51727 15.5602 3.51774H16.8933V4.83497C14.6585 5.13739 12.5344 6.00839 10.7169 7.36775C10.2502 7.74855 10.0108 8.34892 10.0845 8.95349C10.1582 9.55833 10.5344 10.0808 11.0784 10.3339C11.6224 10.5871 12.2565 10.5348 12.7536 10.1956C14.7038 8.73377 17.1107 8.04699 19.5229 8.26415C21.9348 8.48132 24.1862 9.5875 25.8546 11.3755C27.5228 13.1632 28.4931 15.5097 28.5833 17.9747C28.6737 20.4392 27.8779 22.853 26.3452 24.7624C24.8126 26.6719 22.6485 27.9462 20.2586 28.3459C17.8692 28.7457 15.4187 28.2434 13.3668 26.9335C13.0159 26.705 12.596 26.6136 12.1843 26.6759C11.7725 26.7384 11.397 26.9503 11.1268 27.2731C10.8072 27.6587 10.666 28.166 10.7395 28.6649C10.8127 29.1641 11.0936 29.607 11.51 29.8805C14.2275 31.6442 17.4817 32.3416 20.666 31.8428C23.7936 31.3389 26.646 29.7259 28.7191 27.2883C30.7922 24.8507 31.9542 21.7455 31.9986 18.5205C32.0421 15.4819 31.0765 12.5173 29.2588 10.1074L30.6951 8.64083ZM11.9129 15.0915C12.4046 15.0915 12.8591 14.8241 13.1051 14.3905C13.3509 13.9567 13.3509 13.4221 13.1051 12.9883C12.8591 12.5544 12.4046 12.2871 11.9129 12.2871H1.37657C0.884829 12.2871 0.430313 12.5545 0.184315 12.9883C-0.0614385 13.4221 -0.0614385 13.9567 0.184315 14.3905C0.430302 14.8241 0.884871 15.0915 1.37657 15.0915H11.9129ZM11.9129 17.288H3.9669C3.47516 17.288 3.02064 17.5553 2.77488 17.9892C2.5289 18.423 2.5289 18.9575 2.77488 19.3911C3.02064 19.825 3.4752 20.0923 3.9669 20.0923H11.9129C12.4046 20.0923 12.8591 19.825 13.1051 19.3911C13.3509 18.9575 13.3509 18.423 13.1051 17.9892C12.8591 17.5553 12.4046 17.288 11.9129 17.288Z" fill="#DDDDDD"/>
</svg>
